<svg width="316" height="316" viewBox="0 0 316 316" fill="none" xmlns="http://www.w3.org/2000/svg">
<circle opacity="0.5" cx="158" cy="158" r="158" fill="black"/>
<circle opacity="0.5" cx="158" cy="158" r="140" fill="black"/>
<circle cx="158" cy="157" r="122" fill="black"/>
<path d="M91.0522 182V133.273H101.25V173.592H122.558V182H91.0522ZM128.671 193.92C127.703 193.92 126.769 193.875 125.869 193.785C124.968 193.695 124.225 193.594 123.64 193.481V186.153C124 186.221 124.462 186.289 125.024 186.356C125.587 186.446 126.229 186.491 126.949 186.491C128.435 186.491 129.606 186.244 130.461 185.748C131.316 185.253 131.958 184.398 132.386 183.182L132.825 182L120.027 145.801H130.866L139.038 176.057L137.721 174.098H139.578L138.261 176.057L146.433 145.801H156.834L144.407 182.642C143.462 185.478 142.269 187.718 140.828 189.361C139.41 191.005 137.699 192.175 135.695 192.873C133.691 193.571 131.35 193.92 128.671 193.92ZM158.895 182V145.801H168.755V151.744H168.958C169.904 149.673 171.299 148.04 173.145 146.847C174.991 145.654 177.276 145.058 180 145.058C183.985 145.058 187.058 146.262 189.219 148.671C191.403 151.057 192.494 154.378 192.494 158.632V182H182.634V160.659C182.634 158.295 182.071 156.471 180.946 155.188C179.843 153.882 178.188 153.23 175.982 153.23C174.519 153.23 173.247 153.567 172.166 154.243C171.085 154.895 170.241 155.818 169.633 157.012C169.048 158.205 168.755 159.6 168.755 161.199V182H158.895ZM196.548 182V176.394L214.749 153.398V153.23H196.818V145.801H226.028V152.048L208.907 174.368V174.571H226.433V182H196.548Z" fill="#FFF45A"/>
</svg>
